<?xml version="1.0" encoding="UTF-8" standalone="no"?>
<!-- Created with Inkscape (http://www.inkscape.org/) -->

<svg
   xmlns:dc="http://purl.org/dc/elements/1.1/"
   xmlns:cc="http://creativecommons.org/ns#"
   xmlns:rdf="http://www.w3.org/1999/02/22-rdf-syntax-ns#"
   xmlns:svg="http://www.w3.org/2000/svg"
   xmlns="http://www.w3.org/2000/svg"
   xmlns:sodipodi="http://sodipodi.sourceforge.net/DTD/sodipodi-0.dtd"
   xmlns:inkscape="http://www.inkscape.org/namespaces/inkscape"
   width="800"
   height="200"
   id="svg2816"
   version="1.1"
   inkscape:version="0.47 r22583"
   sodipodi:docname="crash.svg"
   inkscape:export-filename="/Users/julien/Desktop/crash_.png"
   inkscape:export-xdpi="200"
   inkscape:export-ydpi="200">
  <defs
     id="defs2818">
    <inkscape:perspective
       sodipodi:type="inkscape:persp3d"
       inkscape:vp_x="0 : 526.18109 : 1"
       inkscape:vp_y="0 : 1000 : 0"
       inkscape:vp_z="744.09448 : 526.18109 : 1"
       inkscape:persp3d-origin="372.04724 : 350.78739 : 1"
       id="perspective2824" />
    <inkscape:perspective
       id="perspective2978"
       inkscape:persp3d-origin="0.5 : 0.33333333 : 1"
       inkscape:vp_z="1 : 0.5 : 1"
       inkscape:vp_y="0 : 1000 : 0"
       inkscape:vp_x="0 : 0.5 : 1"
       sodipodi:type="inkscape:persp3d" />
    <inkscape:perspective
       id="perspective3832"
       inkscape:persp3d-origin="0.5 : 0.33333333 : 1"
       inkscape:vp_z="1 : 0.5 : 1"
       inkscape:vp_y="0 : 1000 : 0"
       inkscape:vp_x="0 : 0.5 : 1"
       sodipodi:type="inkscape:persp3d" />
    <inkscape:perspective
       id="perspective3892"
       inkscape:persp3d-origin="0.5 : 0.33333333 : 1"
       inkscape:vp_z="1 : 0.5 : 1"
       inkscape:vp_y="0 : 1000 : 0"
       inkscape:vp_x="0 : 0.5 : 1"
       sodipodi:type="inkscape:persp3d" />
    <inkscape:perspective
       id="perspective3991"
       inkscape:persp3d-origin="0.5 : 0.33333333 : 1"
       inkscape:vp_z="1 : 0.5 : 1"
       inkscape:vp_y="0 : 1000 : 0"
       inkscape:vp_x="0 : 0.5 : 1"
       sodipodi:type="inkscape:persp3d" />
    <inkscape:perspective
       id="perspective4065"
       inkscape:persp3d-origin="0.5 : 0.33333333 : 1"
       inkscape:vp_z="1 : 0.5 : 1"
       inkscape:vp_y="0 : 1000 : 0"
       inkscape:vp_x="0 : 0.5 : 1"
       sodipodi:type="inkscape:persp3d" />
    <inkscape:perspective
       id="perspective4141"
       inkscape:persp3d-origin="0.5 : 0.33333333 : 1"
       inkscape:vp_z="1 : 0.5 : 1"
       inkscape:vp_y="0 : 1000 : 0"
       inkscape:vp_x="0 : 0.5 : 1"
       sodipodi:type="inkscape:persp3d" />
  </defs>
  <sodipodi:namedview
     id="base"
     pagecolor="#ffffff"
     bordercolor="#666666"
     borderopacity="1.0"
     inkscape:pageopacity="0.0"
     inkscape:pageshadow="2"
     inkscape:zoom="1.4927418"
     inkscape:cx="379.64813"
     inkscape:cy="-20.369693"
     inkscape:document-units="px"
     inkscape:current-layer="layer1"
     showgrid="true"
     inkscape:window-width="1766"
     inkscape:window-height="1051"
     inkscape:window-x="531"
     inkscape:window-y="125"
     inkscape:window-maximized="0">
    <inkscape:grid
       type="xygrid"
       id="grid3898"
       empspacing="5"
       visible="true"
       enabled="true"
       snapvisiblegridlinesonly="true" />
  </sodipodi:namedview>
  <metadata
     id="metadata2821">
    <rdf:RDF>
      <cc:Work
         rdf:about="">
        <dc:format>image/svg+xml</dc:format>
        <dc:type
           rdf:resource="http://purl.org/dc/dcmitype/StillImage" />
        <dc:title></dc:title>
      </cc:Work>
    </rdf:RDF>
  </metadata>
  <g
     inkscape:label="Layer 1"
     inkscape:groupmode="layer"
     id="layer1"
     transform="translate(-89.5,57.637823)">
    <path
       style="fill:none;stroke:#000000;stroke-width:5;stroke-linecap:butt;stroke-linejoin:miter;stroke-miterlimit:4;stroke-opacity:1;stroke-dasharray:none"
       d="m 219.5,8.36218 30,29.999997 -30,30"
       id="path3900" />
    <path
       style="fill:#000000;stroke-width:0.1;stroke-miterlimit:4;stroke-dasharray:none"
       d="m 278.7,71.762177 0,-0.6 3,0 3,0 0,0.6 0,0.6 -3,0 -3,0 0,-0.6 z m 7.2,0 0,-0.6 3,0 3,0 0,0.6 0,0.6 -3,0 -3,0 0,-0.6 z m 7.2,0 0,-0.6 3,0 3,0 0,0.6 0,0.6 -3,0 -3,0 0,-0.6 z m 7.2,0 0,-0.6 3,0 3,0 0,0.6 0,0.6 -3,0 -3,0 0,-0.6 z m 7.2,0 0,-0.6 3,0 3,0 0,0.6 0,0.6 -3,0 -3,0 0,-0.6 z m 7.2,0 0,-0.6 3,0 3,0 0,0.6 0,0.6 -3,0 -3,0 0,-0.6 z m 31.2,-5.4 0,-5.99999 0.6,0 0.6,0 0,5.99999 0,6 -0.6,0 -0.6,0 0,-6 z m 338.4,0 0,-5.99999 0.6,0 0.6,0 0,5.99999 0,6 -0.6,0 -0.6,0 0,-6 z m 72,0 0,-5.99999 0.6,0 0.6,0 0,5.99999 0,6 -0.6,0 -0.6,0 0,-6 z m -482.13231,4.14772 -0.40313,-0.65227 0.66772,-0.66773 0.66772,-0.66772 0.66772,0.66772 0.66772,0.66773 -0.40313,0.65227 c -0.22172,0.35876 -0.64126,0.65228 -0.93231,0.65228 -0.29105,0 -0.71059,-0.29352 -0.93231,-0.65228 z m 50.4,0 -0.40313,-0.65227 0.66772,-0.66773 0.66772,-0.66772 0.66772,0.66772 0.66772,0.66773 -0.40313,0.65227 c -0.22172,0.35876 -0.64126,0.65228 -0.93231,0.65228 -0.29105,0 -0.71059,-0.29352 -0.93231,-0.65228 z m 79.2,0 -0.40313,-0.65227 0.66772,-0.66773 0.66772,-0.66772 0.66772,0.66772 0.66772,0.66773 -0.40313,0.65227 c -0.22172,0.35876 -0.64126,0.65228 -0.93231,0.65228 -0.29105,0 -0.71059,-0.29352 -0.93231,-0.65228 z m 28.8,0 -0.40313,-0.65227 0.66772,-0.66773 0.66772,-0.66772 0.66772,0.66772 0.66772,0.66773 -0.40313,0.65227 c -0.22172,0.35876 -0.64126,0.65228 -0.93231,0.65228 -0.29105,0 -0.71059,-0.29352 -0.93231,-0.65228 z m 100.8,0 -0.40313,-0.65227 0.66772,-0.66773 0.66772,-0.66772 0.66772,0.66772 0.66772,0.66773 -0.40313,0.65227 c -0.22172,0.35876 -0.64126,0.65228 -0.93231,0.65228 -0.29105,0 -0.71059,-0.29352 -0.93231,-0.65228 z m 14.4,0 -0.40313,-0.65227 0.66772,-0.66773 0.66772,-0.66772 0.66772,0.66772 0.66772,0.66773 -0.40313,0.65227 c -0.22172,0.35876 -0.64126,0.65228 -0.93231,0.65228 -0.29105,0 -0.71059,-0.29352 -0.93231,-0.65228 z m 7.2,0 -0.40313,-0.65227 0.66772,-0.66773 0.66772,-0.66772 0.66772,0.66772 0.66772,0.66773 -0.40313,0.65227 c -0.22172,0.35876 -0.64126,0.65228 -0.93231,0.65228 -0.29105,0 -0.71059,-0.29352 -0.93231,-0.65228 z m 7.2,0 -0.40313,-0.65227 0.66772,-0.66773 0.66772,-0.66772 0.66772,0.66772 0.66772,0.66773 -0.40313,0.65227 c -0.22172,0.35876 -0.64126,0.65228 -0.93231,0.65228 -0.29105,0 -0.71059,-0.29352 -0.93231,-0.65228 z m 7.2,0 -0.40313,-0.65227 0.66772,-0.66773 0.66772,-0.66772 0.66772,0.66772 0.66772,0.66773 -0.40313,0.65227 c -0.22172,0.35876 -0.64126,0.65228 -0.93231,0.65228 -0.29105,0 -0.71059,-0.29352 -0.93231,-0.65228 z m -302.07973,-6.26222 -0.75896,-0.9145 0.371,-0.371 0.371,-0.371 0.9145,0.75897 c 1.00506,0.83412 1.21443,1.81203 0.38797,1.81203 -0.2896,0 -0.86807,-0.41152 -1.28551,-0.9145 z m 65.41204,-0.8855 0,-1.79999 0.6,0 0.6,0 0,1.79999 0,1.8 -0.6,0 -0.6,0 0,-1.8 z m 64.18796,0.8855 -0.75896,-0.9145 0.371,-0.371 0.371,-0.371 0.9145,0.75897 c 0.50298,0.41743 0.9145,0.99591 0.9145,1.2855 0,0.82647 -0.97791,0.61709 -1.81204,-0.38797 z m 43.81204,-0.8855 0,-1.79999 0.6,0 0.6,0 0,1.79999 0,1.8 -0.6,0 -0.6,0 0,-1.8 z m 85.78796,0.8855 -0.75896,-0.9145 0.371,-0.371 0.371,-0.371 0.9145,0.75897 c 1.00506,0.83412 1.21443,1.81203 0.38796,1.81203 -0.28959,0 -0.86806,-0.41152 -1.2855,-0.9145 z m 51.01204,-0.8855 0,-1.79999 0.6,0 0.6,0 0,1.79999 0,1.8 -0.6,0 -0.6,0 0,-1.8 z m 7.2,0 0,-1.79999 0.6,0 0.6,0 0,1.79999 0,1.8 -0.6,0 -0.6,0 0,-1.8 z m -325.2,-13.79999 0,-6 0.6,0 0.6,0 0,6 0,6 -0.6,0 -0.6,0 0,-6 z m 86.4,0 0,-6 0.6,0 0.6,0 0,6 0,6 -0.6,0 -0.6,0 0,-6 z m 338.4,0 0,-6 0.6,0 0.6,0 0,6 0,6 -0.6,0 -0.6,0 0,-6 z m 72,0 0,-6 0.6,0 0.6,0 0,6 0,6 -0.6,0 -0.6,0 0,-6 z m -366.93231,4.14772 -0.40313,-0.65228 0.66772,-0.66772 0.66772,-0.66772 0.66772,0.66772 0.66772,0.66772 -0.40313,0.65228 c -0.22172,0.35875 -0.64126,0.65228 -0.93231,0.65228 -0.29105,0 -0.71059,-0.29353 -0.93231,-0.65228 z m 57.6,0 -0.40313,-0.65228 0.66772,-0.66772 0.66772,-0.66772 0.66772,0.66772 0.66772,0.66772 -0.40313,0.65228 c -0.22172,0.35875 -0.64126,0.65228 -0.93231,0.65228 -0.29105,0 -0.71059,-0.29353 -0.93231,-0.65228 z m 72,0 -0.40313,-0.65228 0.66772,-0.66772 0.66772,-0.66772 0.66772,0.66772 0.66772,0.66772 -0.40313,0.65228 c -0.22172,0.35875 -0.64126,0.65228 -0.93231,0.65228 -0.29105,0 -0.71059,-0.29353 -0.93231,-0.65228 z m 72,0 -0.40313,-0.65228 0.66772,-0.66772 0.66772,-0.66772 0.66772,0.66772 0.66772,0.66772 -0.40313,0.65228 c -0.22172,0.35875 -0.64126,0.65228 -0.93231,0.65228 -0.29105,0 -0.71059,-0.29353 -0.93231,-0.65228 z m 7.2,0 -0.40313,-0.65228 0.66772,-0.66772 0.66772,-0.66772 0.66772,0.66772 0.66772,0.66772 -0.40313,0.65228 c -0.22172,0.35875 -0.64126,0.65228 -0.93231,0.65228 -0.29105,0 -0.71059,-0.29353 -0.93231,-0.65228 z m -215.67973,-6.26222 -0.75896,-0.9145 0.371,-0.371 0.371,-0.371 0.9145,0.75896 c 0.50298,0.41743 0.9145,0.99591 0.9145,1.2855 0,0.82647 -0.97791,0.6171 -1.81204,-0.38796 z m 72.61204,-0.8855 0,-1.8 0.6,0 0.6,0 0,1.8 0,1.8 -0.6,0 -0.6,0 0,-1.8 z m 56.98796,0.8855 -0.75896,-0.9145 0.371,-0.371 0.371,-0.371 0.9145,0.75896 c 1.00506,0.83413 1.21443,1.81204 0.38796,1.81204 -0.28959,0 -0.86806,-0.41152 -1.2855,-0.9145 z m 94.21204,-0.8855 0,-1.8 0.6,0 0.6,0 0,1.8 0,1.8 -0.6,0 -0.6,0 0,-1.8 z m -346.8,-13.8 0,-5.999997 0.6,0 0.6,0 0,5.999997 0,6 -0.6,0 -0.6,0 0,-6 z m 86.4,0 0,-5.999997 0.6,0 0.6,0 0,5.999997 0,6 -0.6,0 -0.6,0 0,-6 z m 28.8,0 0,-5.999997 0.6,0 0.6,0 0,5.999997 0,6 -0.6,0 -0.6,0 0,-6 z m 309.6,0 0,-5.999997 0.6,0 0.6,0 0,5.999997 0,6 -0.6,0 -0.6,0 0,-6 z m 4.8,5.4 0,-0.6 3,0 3,0 0,0.6 0,0.6 -3,0 -3,0 0,-0.6 z m 7.2,0 0,-0.6 3,0 3,0 0,0.6 0,0.6 -3,0 -3,0 0,-0.6 z m 7.2,0 0,-0.6 3,0 3,0 0,0.6 0,0.6 -3,0 -3,0 0,-0.6 z m 7.2,0 0,-0.6 3,0 3,0 0,0.6 0,0.6 -3,0 -3,0 0,-0.6 z m 7.2,0 0,-0.6 3,0 3,0 0,0.6 0,0.6 -3,0 -3,0 0,-0.6 z m 7.2,0 0,-0.6 3,0 3,0 0,0.6 0,0.6 -3,0 -3,0 0,-0.6 z m 7.2,0 0,-0.6 3,0 3,0 0,0.6 0,0.6 -3,0 -3,0 0,-0.6 z m 7.2,0 0,-0.6 3,0 3,0 0,0.6 0,0.6 -3,0 -3,0 0,-0.6 z m 7.2,0 0,-0.6 3,0 3,0 0,0.6 0,0.6 -3,0 -3,0 0,-0.6 z m 9.6,-5.4 0,-5.999997 0.6,0 0.6,0 0,5.999997 0,6 -0.6,0 -0.6,0 0,-6 z m -294.93231,4.14772 -0.40313,-0.65228 0.66772,-0.66772 0.66772,-0.66772 0.66772,0.66772 0.66772,0.66772 -0.40313,0.65228 c -0.22172,0.35875 -0.64126,0.65228 -0.93231,0.65228 -0.29105,0 -0.71059,-0.29353 -0.93231,-0.65228 z m 43.2,0 -0.40313,-0.65228 0.66772,-0.66772 0.66772,-0.66772 0.66772,0.66772 0.66772,0.66772 -0.40313,0.65228 c -0.22172,0.35875 -0.64126,0.65228 -0.93231,0.65228 -0.29105,0 -0.71059,-0.29353 -0.93231,-0.65228 z m 108,0 -0.40313,-0.65228 0.66772,-0.66772 0.66772,-0.66772 0.66772,0.66772 0.66772,0.66772 -0.40313,0.65228 c -0.22172,0.35875 -0.64126,0.65228 -0.93231,0.65228 -0.29105,0 -0.71059,-0.29353 -0.93231,-0.65228 z M 354.3,29.76219 l 0,-1.8 0.6,0 0.6,0 0,1.8 0,1.799997 -0.6,0 -0.6,0 0,-1.799997 z m 7.2,0 0,-1.8 0.6,0 0.6,0 0,1.8 0,1.799997 -0.6,0 -0.6,0 0,-1.799997 z m 7.2,0 0,-1.8 0.6,0 0.6,0 0,1.8 0,1.799997 -0.6,0 -0.6,0 0,-1.799997 z m 14.4,0 0,-1.8 0.6,0 0.6,0 0,1.8 0,1.799997 -0.6,0 -0.6,0 0,-1.799997 z m 7.2,0 0,-1.8 0.6,0 0.6,0 0,1.8 0,1.799997 -0.6,0 -0.6,0 0,-1.799997 z m 7.2,0 0,-1.8 0.6,0 0.6,0 0,1.8 0,1.799997 -0.6,0 -0.6,0 0,-1.799997 z m 7.2,0 0,-1.8 0.6,0 0.6,0 0,1.8 0,1.799997 -0.6,0 -0.6,0 0,-1.799997 z m 7.2,0 0,-1.8 0.6,0 0.6,0 0,1.8 0,1.799997 -0.6,0 -0.6,0 0,-1.799997 z m 57.6,0 0,-1.8 0.6,0 0.6,0 0,1.8 0,1.799997 -0.6,0 -0.6,0 0,-1.799997 z m 7.2,0 0,-1.8 0.6,0 0.6,0 0,1.8 0,1.799997 -0.6,0 -0.6,0 0,-1.799997 z m 6.58796,0.885497 -0.75896,-0.914497 0.371,-0.371 0.371,-0.371 0.9145,0.75896 c 1.00506,0.834127 1.21443,1.812037 0.38796,1.812037 -0.28959,0 -0.86806,-0.41153 -1.2855,-0.9145 z m 7.2,0 -0.75896,-0.914497 0.371,-0.371 0.371,-0.371 0.9145,0.75896 c 1.00506,0.834127 1.21443,1.812037 0.38796,1.812037 -0.28959,0 -0.86806,-0.41153 -1.2855,-0.9145 z m 7.2,0 -0.75896,-0.914497 0.371,-0.371 0.371,-0.371 0.9145,0.75896 c 1.00506,0.834127 1.21443,1.812037 0.38796,1.812037 -0.28959,0 -0.86806,-0.41153 -1.2855,-0.9145 z M 620.7,29.76219 l 0,-1.8 0.6,0 0.6,0 0,1.8 0,1.799997 -0.6,0 -0.6,0 0,-1.799997 z m 7.2,0 0,-1.8 0.6,0 0.6,0 0,1.8 0,1.799997 -0.6,0 -0.6,0 0,-1.799997 z m -210,-7.15 c 0,-0.3025 0.3375,-0.66359 0.75,-0.80243 l 0.75,-0.25243 -0.84457,-1.023 -0.84457,-1.023 0.64229,-0.64229 0.64229,-0.6423 0.65228,0.40314 0.65228,0.40313 0,1.34459 0,1.34459 -0.72,0.72 c -0.85535,0.85535 -1.68,0.93879 -1.68,0.17 z m -72,-6.65 0,-6 0.6,0 0.6,0 0,6 0,6 -0.6,0 -0.6,0 0,-6 z m 338.4,0 0,-6 0.6,0 0.6,0 0,6 0,6 -0.6,0 -0.6,0 0,-6 z m 72,0 0,-6 0.6,0 0.6,0 0,6 0,6 -0.6,0 -0.6,0 0,-6 z m -489.33231,4.14772 -0.40313,-0.65228 0.66772,-0.66772 0.66772,-0.66772 0.66772,0.66772 0.66772,0.66772 -0.40313,0.65228 c -0.22172,0.35875 -0.64126,0.65228 -0.93231,0.65228 -0.29105,0 -0.71059,-0.29353 -0.93231,-0.65228 z m 64.8,0 -0.40313,-0.65228 0.66772,-0.66772 0.66772,-0.66772 0.66772,0.66772 0.66772,0.66772 -0.40313,0.65228 c -0.22172,0.35875 -0.64126,0.65228 -0.93231,0.65228 -0.29105,0 -0.71059,-0.29353 -0.93231,-0.65228 z m 144,0 -0.40313,-0.65228 0.66772,-0.66772 0.66772,-0.66772 0.66772,0.66772 0.66772,0.66772 -0.40313,0.65228 c -0.22172,0.35875 -0.64126,0.65228 -0.93231,0.65228 -0.29105,0 -0.71059,-0.29353 -0.93231,-0.65228 z m 14.4,0 -0.40313,-0.65228 0.66772,-0.66772 0.66772,-0.66772 0.66772,0.66772 0.66772,0.66772 -0.40313,0.65228 c -0.22172,0.35875 -0.64126,0.65228 -0.93231,0.65228 -0.29105,0 -0.71059,-0.29353 -0.93231,-0.65228 z m 144,0 -0.40313,-0.65228 0.66772,-0.66772 0.66772,-0.66772 0.66772,0.66772 0.66772,0.66772 -0.40313,0.65228 c -0.22172,0.35875 -0.64126,0.65228 -0.93231,0.65228 -0.29105,0 -0.71059,-0.29353 -0.93231,-0.65228 z m 7.2,0 -0.40313,-0.65228 0.66772,-0.66772 0.66772,-0.66772 0.66772,0.66772 0.66772,0.66772 -0.40313,0.65228 c -0.22172,0.35875 -0.64126,0.65228 -0.93231,0.65228 -0.29105,0 -0.71059,-0.29353 -0.93231,-0.65228 z M 271.63571,16.45505 c 0.12964,-0.38892 0.69121,-0.99445 1.24793,-1.34562 l 1.01221,-0.63849 1.2491,0.78007 1.24908,0.78007 0.86749,-0.71995 0.86748,-0.71994 0.371,0.371 0.371,0.371 -0.75896,0.9145 -0.75897,0.9145 -1.00654,0 c -0.55359,0 -1.33053,-0.324 -1.72653,-0.72 l -0.72,-0.72 -0.72,0.72 c -0.396,0.396 -0.9585,0.72 -1.25,0.72 l -0.53,0 0.23571,-0.70714 z m 50.4,0 c 0.12964,-0.38892 0.69121,-0.99445 1.24793,-1.34562 l 1.01221,-0.63849 1.24909,0.78007 1.24909,0.78007 0.86749,-0.71995 0.86748,-0.71994 0.371,0.371 0.371,0.371 -0.75896,0.9145 -0.75897,0.9145 -1.00653,0 c -0.5536,0 -1.33054,-0.324 -1.72654,-0.72 l -0.72,-0.72 -0.72,0.72 c -0.396,0.396 -0.9585,0.72 -1.25,0.72 l -0.53,0 0.23571,-0.70714 z m 31.65225,-2.60736 -0.75896,-0.9145 0.371,-0.371 0.371,-0.371 0.9145,0.75896 c 0.50298,0.41743 0.9145,0.99591 0.9145,1.2855 0,0.82647 -0.97791,0.6171 -1.81204,-0.38796 z m 7.2,0 -0.75896,-0.9145 0.371,-0.371 0.371,-0.371 0.9145,0.75896 c 0.50298,0.41743 0.9145,0.99591 0.9145,1.2855 0,0.82647 -0.97791,0.6171 -1.81204,-0.38796 z m 7.2,0 -0.75896,-0.9145 0.371,-0.371 0.371,-0.371 0.9145,0.75896 c 0.50298,0.41743 0.9145,0.99591 0.9145,1.2855 0,0.82647 -0.97791,0.6171 -1.81204,-0.38796 z m 7.2,0 -0.75896,-0.9145 0.371,-0.371 0.371,-0.371 0.9145,0.75896 c 0.50298,0.41743 0.9145,0.99591 0.9145,1.2855 0,0.82647 -0.97791,0.6171 -1.81204,-0.38796 z m 7.2,0 -0.75896,-0.9145 0.371,-0.371 0.371,-0.371 0.9145,0.75896 c 0.50298,0.41743 0.9145,0.99591 0.9145,1.2855 0,0.82647 -0.97791,0.6171 -1.81204,-0.38796 z m 7.2,0 -0.75896,-0.9145 0.371,-0.371 0.371,-0.371 0.9145,0.75896 c 0.50298,0.41743 0.9145,0.99591 0.9145,1.2855 0,0.82647 -0.97791,0.6171 -1.81204,-0.38796 z m 7.2,0 -0.75896,-0.9145 0.371,-0.371 0.371,-0.371 0.9145,0.75896 c 0.50298,0.41743 0.9145,0.99591 0.9145,1.2855 0,0.82647 -0.97791,0.6171 -1.81204,-0.38796 z m 7.2,0 -0.75896,-0.9145 0.371,-0.371 0.371,-0.371 0.9145,0.75896 c 0.50298,0.41743 0.9145,0.99591 0.9145,1.2855 0,0.82647 -0.97791,0.6171 -1.81204,-0.38796 z m 7.2,0 -0.75896,-0.9145 0.371,-0.371 0.371,-0.371 0.9145,0.75896 c 0.50298,0.41743 0.9145,0.99591 0.9145,1.2855 0,0.82647 -0.97791,0.6171 -1.81204,-0.38796 z m 72.61204,-0.8855 0,-1.8 0.6,0 0.6,0 0,1.8 0,1.8 -0.6,0 -0.6,0 0,-1.8 z m 165.6,0 0,-1.8 0.6,0 0.6,0 0,1.8 0,1.8 -0.6,0 -0.6,0 0,-1.8 z m 7.2,0 0,-1.8 0.6,0 0.6,0 0,1.8 0,1.8 -0.6,0 -0.6,0 0,-1.8 z m 7.2,0 0,-1.8 0.6,0 0.6,0 0,1.8 0,1.8 -0.6,0 -0.6,0 0,-1.8 z m 7.2,0 0,-1.8 0.6,0 0.6,0 0,1.8 0,1.8 -0.6,0 -0.6,0 0,-1.8 z m -392.4,-8.40001 0,-0.6 3,0 3,0 0,0.6 0,0.60001 -3,0 -3,0 0,-0.60001 z m 7.2,0 0,-0.6 3,0 3,0 0,0.6 0,0.60001 -3,0 -3,0 0,-0.60001 z m 7.2,0 0,-0.6 3,0 3,0 0,0.6 0,0.60001 -3,0 -3,0 0,-0.60001 z m 7.2,0 0,-0.6 3,0 3,0 0,0.6 0,0.60001 -3,0 -3,0 0,-0.60001 z m 7.2,0 0,-0.6 3,0 3,0 0,0.6 0,0.60001 -3,0 -3,0 0,-0.60001 z m 7.2,0 0,-0.6 3,0 3,0 0,0.6 0,0.60001 -3,0 -3,0 0,-0.60001 z"
       id="path4071" />
  </g>
</svg>
